<?xml version="1.0" encoding="UTF-8"?>
<svg id="b" data-name="Layer 2" xmlns="http://www.w3.org/2000/svg" width="99" height="22" viewBox="0 0 99 22">
  <g id="c" data-name="Layer 3">
    <rect y="0" width="99" height="22" rx="11" ry="11" fill="#ffdf00"/>
  </g>
  <g id="d" data-name="explore flavors">
    <g>
      <path d="m9.78,11.16c0-1.77,1.26-2.9,2.97-2.9s2.82,1.25,2.82,2.82c0,0,0,.27-.02.53h-4.14c.03.66.6,1.09,1.46,1.09.57,0,.96-.18,1.34-.54l.95.91c-.73.76-1.52,1.01-2.36,1.01-1.78,0-3-1.13-3-2.87v-.04Zm4.16-.63c0-.51-.53-.92-1.19-.92-.71,0-1.28.41-1.33.92h2.51Z" fill="#3310a7"/>
      <path d="m17.78,11.03l-1.88-2.63h1.76l1.02,1.46,1.02-1.46h1.76l-1.88,2.63,2.08,2.92h-1.75l-1.23-1.73-1.23,1.73h-1.75l2.08-2.92Z" fill="#3310a7"/>
      <path d="m22.29,8.4h1.62v.73c.15-.47.79-.83,1.63-.83,1.56,0,2.72,1.27,2.72,2.87s-1.16,2.87-2.72,2.87c-.84,0-1.48-.34-1.63-.83v2.85h-1.62v-7.67Zm2.96,4.16c.78,0,1.39-.61,1.39-1.39s-.61-1.39-1.39-1.39-1.44.6-1.44,1.39.64,1.39,1.44,1.39Z" fill="#3310a7"/>
      <path d="m29.18,6.28h1.62v5.61c0,.51.18.72.63.72.12,0,.27-.01.39-.04v1.45c-.16.04-.48.08-.77.08-.77,0-1.87-.24-1.87-1.95v-5.86Z" fill="#3310a7"/>
      <path d="m35.32,8.23c1.69,0,3.05,1.3,3.05,2.94s-1.36,2.94-3.05,2.94-3.05-1.3-3.05-2.94,1.35-2.94,3.05-2.94Zm0,4.39c.79,0,1.43-.64,1.43-1.45s-.63-1.45-1.43-1.45-1.42.65-1.42,1.45.62,1.45,1.42,1.45Z" fill="#3310a7"/>
      <path d="m39.3,8.4h1.62v.76c.25-.56.84-.88,1.59-.88.15,0,.34.02.42.03v1.54c-.15-.03-.34-.05-.54-.05-.92,0-1.47.54-1.47,1.44v2.71h-1.62v-5.54Z" fill="#3310a7"/>
      <path d="m43.46,11.16c0-1.77,1.26-2.9,2.97-2.9s2.82,1.25,2.82,2.82c0,0,0,.27-.02.53h-4.14c.03.66.6,1.09,1.46,1.09.57,0,.96-.18,1.34-.54l.95.91c-.73.76-1.52,1.01-2.36,1.01-1.78,0-3-1.13-3-2.87v-.04Zm4.16-.63c0-.51-.53-.92-1.19-.92-.71,0-1.28.41-1.33.92h2.51Z" fill="#3310a7"/>
      <path d="m53.64,9.88h-.9v-1.49h.9v-.15c0-.91.22-1.38.64-1.72.46-.39,1.03-.41,1.51-.41.23,0,.52.03.65.06v1.36c-.14-.06-.33-.06-.49-.06-.51,0-.75.19-.75.66v.25h1.1v1.49h-1.1v4.06h-1.57v-4.06Z" fill="#3310a7"/>
      <path d="m57.11,6.28h1.62v5.61c0,.51.18.72.63.72.12,0,.27-.01.39-.04v1.45c-.16.04-.48.08-.77.08-.77,0-1.87-.24-1.87-1.95v-5.86Z" fill="#3310a7"/>
      <path d="m62.93,8.3c.84,0,1.48.34,1.63.83v-.73h1.62v3.6c0,.45.12.62.4.62.08,0,.2-.01.27-.02v1.36c-.16.06-.47.09-.73.09-.29,0-.62-.04-.89-.2-.17-.11-.39-.29-.49-.59-.32.47-.86.8-1.82.8-1.56,0-2.72-1.27-2.72-2.88s1.16-2.87,2.72-2.87Zm.29,4.26c.79,0,1.44-.61,1.44-1.39s-.64-1.39-1.44-1.39-1.39.6-1.39,1.39.61,1.39,1.39,1.39Z" fill="#3310a7"/>
      <path d="m66.97,8.4h1.64l1.44,3.52,1.42-3.52h1.64l-2.35,5.54h-1.45l-2.35-5.54Z" fill="#3310a7"/>
      <path d="m76.26,8.23c1.69,0,3.05,1.3,3.05,2.94s-1.36,2.94-3.05,2.94-3.05-1.3-3.05-2.94,1.35-2.94,3.05-2.94Zm0,4.39c.79,0,1.43-.64,1.43-1.45s-.63-1.45-1.43-1.45-1.42.65-1.42,1.45.62,1.45,1.42,1.45Z" fill="#3310a7"/>
      <path d="m80.25,8.4h1.62v.76c.25-.56.84-.88,1.59-.88.15,0,.34.02.42.03v1.54c-.15-.03-.34-.05-.54-.05-.92,0-1.47.54-1.47,1.44v2.71h-1.62v-5.54Z" fill="#3310a7"/>
      <path d="m85.15,12.1c.29.35.86.61,1.5.61.58,0,.83-.19.83-.45,0-.37-.75-.41-1.59-.69-.76-.26-1.26-.7-1.26-1.54,0-1.19,1.02-1.78,2.13-1.78.98,0,1.61.34,2.02.72l-.77,1.08c-.24-.2-.65-.41-1.29-.41-.37,0-.54.17-.54.35,0,.37.45.31,1.5.68.99.34,1.35.87,1.35,1.57,0,1.07-.74,1.87-2.42,1.87-1.23,0-1.98-.47-2.39-.99l.94-1.01Z" fill="#3310a7"/>
    </g>
  </g>
</svg>