<?xml version="1.0" encoding="UTF-8"?>
<svg id="b" data-name="Layer 2" xmlns="http://www.w3.org/2000/svg" width="144" height="32" viewBox="0 0 144 32">
  <g id="c" data-name="Layer 3">
    <rect y="0" width="144" height="32" rx="16" ry="16" fill="#b4d900"/>
  </g>
  <g id="d" data-name="explore flavors">
    <g>
      <path d="m14.45,16.31c0-2.58,1.85-4.23,4.36-4.23s4.13,1.83,4.13,4.1c0,0,0,.4-.03.77h-6.08c.05.96.88,1.58,2.14,1.58.83,0,1.4-.26,1.96-.78l1.39,1.33c-1.07,1.1-2.23,1.47-3.46,1.47-2.62,0-4.4-1.65-4.4-4.18v-.06Zm6.1-.91c0-.74-.78-1.34-1.74-1.34-1.04,0-1.88.59-1.95,1.34h3.69Z" fill="#3310a7"/>
      <path d="m26.08,16.12l-2.76-3.83h2.59l1.5,2.13,1.5-2.13h2.58l-2.76,3.83,3.05,4.24h-2.57l-1.8-2.51-1.8,2.51h-2.57l3.05-4.24Z" fill="#3310a7"/>
      <path d="m32.62,12.3h2.38v1.06c.22-.69,1.17-1.2,2.39-1.2,2.28,0,3.99,1.84,3.99,4.18s-1.71,4.18-3.99,4.18c-1.23,0-2.17-.5-2.39-1.2v4.15h-2.38v-11.16Zm4.34,6.05c1.15,0,2.04-.88,2.04-2.02s-.89-2.02-2.04-2.02-2.11.88-2.11,2.02.94,2.02,2.11,2.02Z" fill="#3310a7"/>
      <path d="m42.64,9.21h2.38v8.16c0,.74.27,1.04.93,1.04.18,0,.4-.02.58-.06v2.11c-.24.06-.7.11-1.13.11-1.13,0-2.75-.35-2.75-2.83v-8.53Z" fill="#3310a7"/>
      <path d="m51.55,12.06c2.47,0,4.47,1.89,4.47,4.27s-2,4.27-4.47,4.27-4.47-1.89-4.47-4.27,1.98-4.27,4.47-4.27Zm0,6.39c1.17,0,2.09-.93,2.09-2.11s-.93-2.11-2.09-2.11-2.09.94-2.09,2.11.91,2.11,2.09,2.11Z" fill="#3310a7"/>
      <path d="m57.3,12.3h2.38v1.1c.37-.82,1.23-1.28,2.33-1.28.22,0,.49.03.62.05v2.24c-.22-.05-.5-.08-.8-.08-1.36,0-2.16.78-2.16,2.1v3.94h-2.38v-8.07Z" fill="#3310a7"/>
      <path d="m63.31,16.31c0-2.58,1.85-4.23,4.36-4.23s4.13,1.83,4.13,4.1c0,0,0,.4-.03.77h-6.08c.05.96.88,1.58,2.14,1.58.83,0,1.4-.26,1.96-.78l1.39,1.33c-1.07,1.1-2.23,1.47-3.46,1.47-2.62,0-4.41-1.65-4.41-4.18v-.06Zm6.1-.91c0-.74-.78-1.34-1.74-1.34-1.04,0-1.88.59-1.95,1.34h3.69Z" fill="#3310a7"/>
      <path d="m78.25,14.46h-1.33v-2.16h1.33v-.22c0-1.33.32-2,.94-2.5.67-.56,1.52-.59,2.22-.59.33,0,.77.05.96.08v1.99c-.21-.08-.48-.08-.72-.08-.75,0-1.1.27-1.1.96v.37h1.61v2.16h-1.61v5.91h-2.3v-5.91Z" fill="#3310a7"/>
      <path d="m83.24,9.21h2.38v8.16c0,.74.27,1.04.93,1.04.18,0,.4-.02.58-.06v2.11c-.24.06-.7.11-1.13.11-1.13,0-2.75-.35-2.75-2.83v-8.53Z" fill="#3310a7"/>
      <path d="m91.69,12.15c1.23,0,2.17.5,2.39,1.2v-1.06h2.38v5.23c0,.66.18.9.59.9.11,0,.29-.02.4-.03v1.98c-.24.08-.69.13-1.07.13-.43,0-.91-.06-1.31-.29-.25-.16-.57-.42-.72-.86-.46.69-1.26,1.17-2.67,1.17-2.28,0-3.99-1.84-3.99-4.19s1.71-4.18,3.99-4.18Zm.43,6.19c1.17,0,2.11-.88,2.11-2.02s-.94-2.02-2.11-2.02-2.04.88-2.04,2.02.89,2.02,2.04,2.02Z" fill="#3310a7"/>
      <path d="m97.53,12.3h2.41l2.11,5.12,2.09-5.12h2.41l-3.45,8.07h-2.12l-3.45-8.07Z" fill="#3310a7"/>
      <path d="m111.06,12.06c2.47,0,4.47,1.89,4.47,4.27s-2,4.27-4.47,4.27-4.47-1.89-4.47-4.27,1.98-4.27,4.47-4.27Zm0,6.39c1.17,0,2.09-.93,2.09-2.11s-.93-2.11-2.09-2.11-2.09.94-2.09,2.11.91,2.11,2.09,2.11Z" fill="#3310a7"/>
      <path d="m116.81,12.3h2.38v1.1c.37-.82,1.23-1.28,2.33-1.28.22,0,.49.03.62.05v2.24c-.22-.05-.5-.08-.8-.08-1.36,0-2.16.78-2.16,2.1v3.94h-2.38v-8.07Z" fill="#3310a7"/>
      <path d="m123.91,17.67c.43.51,1.26.88,2.2.88.85,0,1.21-.27,1.21-.66,0-.54-1.1-.59-2.33-1.01-1.12-.38-1.85-1.02-1.85-2.24,0-1.73,1.5-2.59,3.13-2.59,1.44,0,2.36.5,2.97,1.04l-1.13,1.57c-.35-.29-.96-.59-1.9-.59-.54,0-.8.24-.8.51,0,.54.65.45,2.2.99,1.45.5,1.98,1.26,1.98,2.29,0,1.55-1.09,2.72-3.54,2.72-1.8,0-2.9-.69-3.51-1.44l1.37-1.47Z" fill="#3310a7"/>
    </g>
  </g>
</svg>