<?xml version="1.0" encoding="UTF-8"?>
<svg id="b" data-name="Layer 2" xmlns="http://www.w3.org/2000/svg" width="133" height="28" viewBox="0 0 133 28">
  <g id="c" data-name="bg">
    <rect y="0" width="133" height="28" rx="14" ry="14" fill="#b4d900"/>
  </g>
  <g id="d" data-name="explore flavors">
    <g>
      <path d="m16.48,14.27c0-2.25,1.61-3.7,3.78-3.7s3.59,1.6,3.59,3.59c0,0,0,.35-.03.67h-5.28c.04.84.76,1.39,1.86,1.39.72,0,1.22-.22,1.7-.69l1.21,1.16c-.93.97-1.94,1.29-3.01,1.29-2.27,0-3.82-1.44-3.82-3.66v-.06Zm5.29-.8c0-.64-.68-1.18-1.51-1.18-.9,0-1.63.52-1.69,1.18h3.2Z" fill="#3310a7"/>
      <path d="m26.59,14.1l-2.4-3.35h2.24l1.3,1.86,1.3-1.86h2.24l-2.4,3.35,2.65,3.71h-2.23l-1.57-2.2-1.57,2.2h-2.23l2.65-3.71Z" fill="#3310a7"/>
      <path d="m32.28,10.75h2.06v.92c.19-.6,1.01-1.05,2.08-1.05,1.98,0,3.46,1.61,3.46,3.66s-1.48,3.66-3.46,3.66c-1.07,0-1.88-.43-2.08-1.05v3.63h-2.06v-9.76Zm3.77,5.29c1,0,1.77-.77,1.77-1.77s-.78-1.76-1.77-1.76-1.83.77-1.83,1.76.82,1.77,1.83,1.77Z" fill="#3310a7"/>
      <path d="m40.98,8.05h2.06v7.14c0,.64.24.91.8.91.15,0,.35-.01.5-.06v1.85c-.21.06-.61.1-.98.1-.98,0-2.38-.31-2.38-2.48v-7.47Z" fill="#3310a7"/>
      <path d="m48.72,10.54c2.15,0,3.88,1.65,3.88,3.74s-1.73,3.74-3.88,3.74-3.88-1.65-3.88-3.74,1.72-3.74,3.88-3.74Zm0,5.59c1.01,0,1.81-.81,1.81-1.85s-.8-1.85-1.81-1.85-1.82.83-1.82,1.85.79,1.85,1.82,1.85Z" fill="#3310a7"/>
      <path d="m53.73,10.75h2.06v.97c.32-.71,1.07-1.12,2.02-1.12.19,0,.43.03.54.04v1.96c-.19-.04-.43-.07-.69-.07-1.18,0-1.87.69-1.87,1.83v3.45h-2.06v-7.06Z" fill="#3310a7"/>
      <path d="m58.96,14.27c0-2.25,1.61-3.7,3.78-3.7s3.59,1.6,3.59,3.59c0,0,0,.35-.03.67h-5.28c.04.84.76,1.39,1.86,1.39.72,0,1.22-.22,1.7-.69l1.21,1.16c-.93.97-1.94,1.29-3.01,1.29-2.27,0-3.82-1.44-3.82-3.66v-.06Zm5.29-.8c0-.64-.68-1.18-1.51-1.18-.9,0-1.63.52-1.69,1.18h3.2Z" fill="#3310a7"/>
      <path d="m71.92,12.64h-1.15v-1.89h1.15v-.2c0-1.16.28-1.75.82-2.19.58-.49,1.32-.52,1.93-.52.29,0,.67.04.83.07v1.74c-.18-.07-.42-.07-.62-.07-.65,0-.96.24-.96.84v.32h1.4v1.89h-1.4v5.17h-2v-5.17Z" fill="#3310a7"/>
      <path d="m76.26,8.05h2.06v7.14c0,.64.24.91.8.91.15,0,.35-.01.5-.06v1.85c-.21.06-.61.1-.98.1-.98,0-2.38-.31-2.38-2.48v-7.47Z" fill="#3310a7"/>
      <path d="m83.61,10.63c1.07,0,1.88.43,2.08,1.05v-.92h2.06v4.58c0,.57.15.78.51.78.1,0,.25-.01.35-.03v1.74c-.21.07-.6.11-.93.11-.37,0-.79-.06-1.14-.25-.22-.14-.5-.36-.62-.76-.4.6-1.09,1.02-2.31,1.02-1.98,0-3.46-1.61-3.46-3.67s1.48-3.66,3.46-3.66Zm.37,5.42c1.01,0,1.83-.77,1.83-1.77s-.82-1.76-1.83-1.76-1.77.77-1.77,1.76.78,1.77,1.77,1.77Z" fill="#3310a7"/>
      <path d="m88.69,10.75h2.09l1.83,4.48,1.82-4.48h2.09l-2.99,7.06h-1.84l-2.99-7.06Z" fill="#3310a7"/>
      <path d="m100.45,10.54c2.15,0,3.88,1.65,3.88,3.74s-1.73,3.74-3.88,3.74-3.88-1.65-3.88-3.74,1.72-3.74,3.88-3.74Zm0,5.59c1.01,0,1.81-.81,1.81-1.85s-.8-1.85-1.81-1.85-1.82.83-1.82,1.85.79,1.85,1.82,1.85Z" fill="#3310a7"/>
      <path d="m105.45,10.75h2.06v.97c.32-.71,1.07-1.12,2.02-1.12.19,0,.43.03.54.04v1.96c-.19-.04-.43-.07-.69-.07-1.18,0-1.87.69-1.87,1.83v3.45h-2.06v-7.06Z" fill="#3310a7"/>
      <path d="m111.62,15.46c.37.45,1.09.77,1.91.77.73,0,1.05-.24,1.05-.57,0-.48-.96-.52-2.02-.88-.97-.34-1.61-.9-1.61-1.96,0-1.51,1.3-2.27,2.72-2.27,1.25,0,2.05.43,2.58.91l-.98,1.37c-.3-.25-.83-.52-1.65-.52-.47,0-.69.21-.69.45,0,.48.57.39,1.91.87,1.26.43,1.72,1.11,1.72,2,0,1.36-.94,2.38-3.08,2.38-1.57,0-2.52-.6-3.05-1.26l1.19-1.29Z" fill="#3310a7"/>
    </g>
  </g>
</svg>